<?xml version="1.0" standalone="no"?>
<!DOCTYPE svg PUBLIC "-//W3C//DTD SVG 20010904//EN"
 "http://www.w3.org/TR/2001/REC-SVG-20010904/DTD/svg10.dtd">
<svg version="1.0" xmlns="http://www.w3.org/2000/svg"
 width="1646.000000pt" height="475.000000pt" viewBox="0 0 1646.000000 475.000000"
 preserveAspectRatio="xMidYMid meet">

<g transform="translate(0.000000,475.000000) scale(0.100000,-0.100000)"
fill="#000000" stroke="none">
<path d="M15807 3995 c-81 -28 -125 -98 -136 -212 -13 -138 8 -242 63 -301 44
-50 94 -66 196 -67 108 0 154 13 197 55 44 43 65 94 76 185 20 163 -22 283
-117 330 -43 22 -63 25 -145 25 -55 -1 -113 -7 -134 -15z m230 -46 c73 -23
108 -100 108 -239 0 -81 -4 -102 -25 -145 -29 -59 -72 -90 -136 -100 -81 -12
-157 9 -201 57 -41 44 -56 96 -56 198 -1 111 21 173 72 209 53 38 152 46 238
20z"/>
<path d="M15825 3884 c-13 -14 -15 -41 -13 -182 l3 -167 35 0 35 0 3 68 c2 57
6 67 21 67 23 0 42 -23 75 -87 23 -46 30 -53 56 -53 41 0 48 23 21 68 -55 93
-56 96 -27 125 20 21 26 36 26 72 0 59 -12 80 -51 94 -50 17 -164 14 -184 -5z
m153 -62 c28 -36 6 -86 -43 -98 -36 -9 -45 2 -45 61 0 43 4 54 18 58 25 6 55
-3 70 -21z"/>
<path d="M2998 3945 c-380 -72 -571 -332 -633 -863 -21 -174 -20 -552 1 -714
50 -384 188 -626 426 -742 113 -56 211 -77 379 -83 398 -15 626 100 764 382
109 223 151 505 142 950 -3 192 -9 277 -25 365 -69 385 -233 598 -527 686 -80
24 -109 27 -270 30 -128 2 -202 -1 -257 -11z m420 -279 c184 -49 265 -187 303
-516 16 -136 16 -673 0 -810 -27 -234 -60 -329 -140 -411 -47 -48 -67 -60
-124 -78 -85 -26 -249 -37 -348 -22 -256 36 -357 174 -398 547 -19 163 -24
454 -12 654 28 472 112 611 392 650 82 11 259 4 327 -14z"/>
<path d="M11015 3951 c-71 -18 -138 -67 -178 -131 -27 -43 -187 -604 -452
-1585 -86 -317 -118 -452 -122 -512 -6 -81 -5 -82 24 -111 52 -53 186 -71 235
-33 36 29 52 74 108 301 55 220 74 274 110 305 21 19 36 20 382 20 l360 0 33
-36 c29 -33 37 -55 80 -235 63 -267 71 -297 95 -327 28 -36 80 -50 159 -45
125 9 168 54 158 165 -14 146 -506 2007 -555 2098 -34 62 -96 110 -162 124
-56 12 -228 13 -275 2z m177 -333 c21 -32 48 -127 116 -403 74 -299 142 -613
142 -657 0 -19 -6 -43 -14 -54 -14 -18 -31 -19 -295 -22 l-281 -3 -25 25 c-14
14 -25 34 -25 46 0 89 245 1037 277 1072 24 27 87 24 105 -4z"/>
<path d="M520 3927 c-51 -16 -105 -75 -118 -130 -9 -33 -12 -333 -12 -1097 0
-1171 -5 -1094 70 -1124 52 -21 152 -21 195 0 68 32 65 -13 50 919 -8 462 -15
879 -15 926 0 88 13 126 38 110 7 -4 161 -398 343 -875 181 -477 341 -891 356
-919 63 -125 126 -167 262 -175 156 -8 244 24 291 108 l25 45 3 1068 c3 1185
7 1114 -63 1143 -49 20 -179 19 -216 -3 -63 -37 -61 12 -41 -990 11 -516 15
-916 10 -925 -11 -23 -31 -23 -50 0 -9 9 -170 417 -358 906 -188 489 -352 904
-364 922 -53 79 -121 104 -270 103 -56 -1 -117 -6 -136 -12z"/>
<path d="M8190 3920 c-69 -23 -132 -89 -149 -154 -17 -67 -15 -2102 2 -2135
23 -46 62 -65 140 -69 90 -5 139 13 162 58 15 30 16 109 7 989 -5 531 -6 966
-1 979 5 12 15 22 24 22 8 0 20 -10 25 -22 6 -13 94 -313 196 -667 102 -354
193 -660 204 -680 41 -81 95 -105 230 -106 94 0 111 3 155 26 35 17 57 37 72
65 13 22 110 330 217 685 107 354 199 656 205 672 15 40 48 37 52 -5 2 -18 0
-458 -4 -977 -6 -716 -6 -950 3 -972 21 -50 54 -64 157 -64 99 0 134 14 160
66 10 19 12 253 10 1079 l-2 1055 -22 41 c-30 57 -83 100 -145 119 -67 19
-219 20 -285 0 -69 -20 -133 -80 -166 -152 -14 -32 -100 -334 -192 -672 -91
-338 -171 -623 -176 -633 -13 -24 -46 -23 -59 1 -5 11 -86 304 -180 651 -97
360 -182 655 -197 687 -50 101 -114 132 -278 132 -82 0 -124 -4 -165 -19z"/>
<path d="M4617 3920 c-92 -23 -163 -84 -186 -159 -8 -28 -11 -328 -11 -1079
l0 -1040 25 -31 c34 -39 82 -54 166 -49 74 4 113 24 136 69 10 18 13 127 13
425 0 384 1 402 20 426 11 15 38 30 64 37 108 27 214 3 280 -62 23 -23 150
-216 285 -432 134 -214 253 -401 265 -414 49 -55 163 -69 244 -30 58 28 89 91
75 148 -6 21 -103 174 -225 352 -355 520 -328 477 -328 523 0 22 6 48 13 57 7
9 51 41 98 71 155 100 243 214 285 368 24 90 24 300 0 389 -60 219 -219 356
-486 416 -60 14 -137 18 -385 21 -171 2 -327 -1 -348 -6z m618 -263 c79 -22
126 -48 172 -95 101 -104 130 -334 67 -534 -46 -144 -153 -230 -330 -263 -90
-18 -278 -20 -324 -4 -58 21 -60 36 -60 448 0 211 4 381 10 395 13 34 50 57
112 67 73 11 292 3 353 -14z"/>
<path d="M6407 3916 c-70 -19 -127 -63 -156 -121 l-26 -49 -3 -1032 c-2 -815
0 -1039 10 -1070 10 -31 22 -44 58 -61 77 -39 209 -28 250 22 13 15 16 84 20
436 l5 417 24 26 c33 35 92 49 173 43 77 -7 129 -30 178 -82 19 -20 148 -217
286 -438 232 -372 254 -403 295 -425 38 -20 54 -23 116 -19 44 2 82 10 98 21
38 25 65 75 65 122 0 37 -25 77 -272 440 -149 219 -276 415 -281 434 -15 58 2
83 111 154 229 151 311 314 299 600 -7 191 -44 286 -156 397 -80 80 -193 139
-327 170 -78 19 -127 22 -404 25 -243 3 -326 1 -363 -10z m559 -246 c110 -14
181 -45 240 -104 72 -72 96 -138 102 -286 11 -297 -88 -452 -328 -511 -35 -9
-112 -14 -208 -14 l-154 0 -23 27 c-32 37 -38 123 -33 498 4 379 2 373 128
390 79 11 194 11 276 0z"/>
<path d="M12391 3915 c-86 -24 -151 -82 -171 -153 -14 -52 -14 -1973 1 -2025
13 -47 60 -102 110 -127 69 -36 163 -42 528 -37 268 4 361 9 414 21 159 37
303 123 392 234 60 74 128 214 160 327 88 307 96 858 20 1183 -73 306 -240
487 -520 564 -75 20 -105 22 -480 25 -329 2 -409 0 -454 -12z m764 -255 c130
-31 242 -116 299 -228 35 -70 71 -198 87 -312 18 -126 18 -544 0 -670 -48
-347 -153 -517 -363 -592 -59 -21 -79 -22 -308 -23 -220 0 -249 2 -273 18 -15
10 -32 30 -38 44 -6 16 -8 342 -7 874 l3 848 22 22 c12 12 39 26 60 30 54 11
458 3 518 -11z"/>
<path d="M14423 3916 c-75 -18 -123 -54 -158 -117 l-30 -54 0 -991 0 -990 30
-59 c24 -46 40 -64 80 -86 80 -45 146 -50 643 -47 l454 3 23 27 c45 52 44 174
0 226 l-23 27 -421 5 c-359 4 -423 7 -431 20 -18 29 -22 118 -18 427 3 284 5
314 21 330 16 16 50 18 390 23 205 3 373 7 374 8 19 17 33 73 33 127 0 60 -3
69 -29 96 l-29 29 -355 0 c-334 0 -356 1 -378 19 l-24 19 0 309 c1 213 4 316
12 335 19 44 57 48 444 48 l356 0 23 25 c43 46 40 186 -5 231 l-24 24 -453 -1
c-329 0 -467 -4 -505 -13z"/>
<path d="M5115 1031 c-100 -26 -109 -50 -110 -286 0 -217 7 -244 73 -272 52
-23 196 -22 239 1 64 33 68 48 68 271 0 223 -4 238 -68 271 -35 19 -154 28
-202 15z m177 -52 c38 -20 48 -68 48 -234 0 -185 -9 -216 -65 -235 -21 -7 -66
-10 -102 -8 -56 3 -69 8 -89 31 -29 34 -38 103 -32 260 5 128 16 168 52 185
28 14 162 15 188 1z"/>
<path d="M7043 1031 c-51 -13 -83 -39 -104 -84 -16 -36 -19 -67 -19 -202 0
-147 2 -165 23 -205 30 -62 77 -84 177 -84 105 0 150 10 150 34 0 18 -6 19
-97 13 -77 -4 -106 -2 -136 10 -57 25 -67 58 -67 234 0 227 16 246 193 240 96
-3 107 -2 107 14 0 9 -8 20 -17 24 -29 11 -175 15 -210 6z"/>
<path d="M7824 1029 c-81 -23 -117 -138 -67 -216 19 -28 60 -52 151 -88 94
-37 126 -72 119 -129 -3 -23 -16 -49 -31 -64 -36 -36 -121 -42 -195 -13 -58
22 -71 20 -71 -9 0 -48 194 -73 274 -35 65 31 97 136 61 205 -17 34 -54 57
-157 100 -97 40 -133 77 -124 129 3 22 16 46 33 60 25 22 33 23 130 19 101 -5
103 -4 103 17 0 19 -7 23 -46 29 -62 8 -142 6 -180 -5z"/>
<path d="M8635 1033 c-97 -26 -124 -70 -132 -217 -8 -141 3 -247 30 -288 39
-57 78 -72 187 -71 145 1 141 -3 138 156 l-3 132 -75 0 c-60 0 -75 -3 -75 -15
0 -11 14 -16 53 -18 l52 -3 0 -98 c0 -94 -1 -99 -22 -105 -41 -11 -128 -6
-163 8 -59 25 -69 53 -73 205 -5 153 5 205 44 242 24 22 33 24 142 24 116 1
139 8 107 35 -16 13 -174 23 -210 13z"/>
<path d="M4437 1023 c-4 -3 -7 -132 -7 -285 0 -271 0 -278 20 -278 19 0 20 7
20 247 0 135 3 243 7 239 4 -4 61 -111 128 -238 66 -127 127 -236 136 -241 9
-5 28 -7 42 -3 l27 6 0 281 0 280 -22 -3 c-23 -3 -23 -3 -28 -250 l-5 -246
-114 219 c-145 279 -145 279 -174 279 -13 0 -27 -3 -30 -7z"/>
<path d="M5585 1017 c-3 -7 -4 -134 -3 -282 3 -262 4 -270 23 -270 19 0 20 8
23 103 l3 103 86 -3 86 -3 31 -100 c22 -71 37 -101 49 -103 30 -6 30 25 -3
123 l-32 95 31 30 c38 38 55 98 48 171 -6 69 -28 114 -67 134 -38 20 -268 22
-275 2z m231 -42 c81 -33 86 -190 8 -241 -20 -14 -47 -18 -108 -19 l-81 0 -3
138 -3 137 76 0 c44 0 90 -6 111 -15z"/>
<path d="M6122 749 l3 -284 110 0 c98 1 115 3 155 25 32 18 52 38 68 70 21 42
23 55 20 201 -3 153 -3 156 -31 192 -45 60 -76 71 -210 75 l-117 4 2 -283z
m232 216 c69 -33 77 -58 74 -227 -3 -140 -4 -148 -28 -174 -34 -37 -76 -53
-159 -60 l-71 -7 0 248 0 248 73 -5 c40 -3 89 -13 111 -23z"/>
<path d="M6680 745 c0 -278 0 -285 20 -285 20 0 20 7 20 285 0 278 0 285 -20
285 -20 0 -20 -7 -20 -285z"/>
<path d="M8265 1017 c-3 -7 -4 -134 -3 -282 3 -262 4 -270 23 -270 19 0 20 8
23 283 2 278 2 282 -18 282 -11 0 -23 -6 -25 -13z"/>
<path d="M9061 1016 c-8 -9 -11 -92 -9 -282 3 -261 4 -269 23 -269 19 0 20 8
25 245 l5 245 125 -243 c101 -196 130 -244 149 -249 55 -14 56 -10 59 291 l2
277 -22 -3 -23 -3 -5 -247 -5 -246 -115 220 c-63 121 -123 233 -132 249 -19
32 -57 39 -77 15z"/>
<path d="M9752 1018 c-17 -22 -164 -527 -158 -544 3 -8 14 -14 23 -12 12 2 26
31 47 101 l29 97 89 0 c101 0 92 9 129 -118 21 -73 40 -95 62 -73 8 8 -10 80
-67 273 -43 145 -83 269 -89 276 -5 6 -20 12 -32 12 -12 0 -27 -6 -33 -12z
m72 -184 c20 -66 36 -124 36 -127 0 -4 -34 -7 -75 -7 -41 0 -75 4 -75 8 0 5
16 62 35 128 19 65 35 121 35 123 0 17 13 -20 44 -125z"/>
<path d="M10080 1010 c0 -18 7 -20 70 -20 l70 0 0 -249 c0 -137 3 -256 6 -265
3 -9 15 -16 25 -16 18 0 19 13 21 263 l3 262 73 3 c64 3 72 5 72 22 0 19 -8
20 -170 20 -163 0 -170 -1 -170 -20z"/>
<path d="M10582 781 c3 -275 3 -272 73 -309 44 -22 188 -21 238 3 67 32 71 49
72 315 l0 235 -22 3 -23 3 0 -208 c0 -304 -7 -318 -151 -318 -142 0 -147 13
-148 333 -1 187 -2 192 -21 192 -21 0 -21 -4 -18 -249z"/>
<path d="M11175 1017 c-3 -7 -4 -134 -3 -282 3 -262 4 -270 23 -270 19 0 20 8
23 103 l3 102 84 0 84 0 31 -101 c30 -97 49 -124 72 -101 7 7 0 41 -22 112
l-32 102 25 26 c42 46 51 73 51 152 -1 87 -19 132 -64 155 -38 20 -268 22
-275 2z m235 -45 c43 -21 66 -80 56 -147 -13 -85 -61 -115 -183 -115 l-63 0 0
140 0 140 78 0 c53 0 88 -5 112 -18z"/>
<path d="M11707 1023 c-10 -9 -8 -536 1 -551 7 -9 44 -12 153 -10 127 3 144 5
147 20 3 16 -10 18 -125 20 l-128 3 -3 107 -3 107 108 3 c100 3 108 4 108 23
0 19 -8 20 -108 23 l-108 3 3 107 3 107 128 3 c119 2 127 4 127 22 0 19 -7 20
-148 20 -82 0 -152 -3 -155 -7z"/>
</g>
</svg>
