<?xml version="1.0" encoding="utf-8"?>
<!-- Generator: Adobe Illustrator 21.1.0, SVG Export Plug-In . SVG Version: 6.00 Build 0)  -->
<svg version="1.1" id="Capa_1" xmlns="http://www.w3.org/2000/svg" xmlns:xlink="http://www.w3.org/1999/xlink" x="0px" y="0px"
	 viewBox="0 0 512 512" style="enable-background:new 0 0 512 512;" xml:space="preserve">
<style type="text/css">
	.st0{stroke:#231F20;stroke-miterlimit:10;}
</style>
<g id="_x37_7_Essential_Icons_59_">
	<path id="Shopping" class="st0" d="M498.5,134.7H376.6C369.9,74.1,318.7,26.9,256,26.9S142.1,74.1,135.4,134.7H13.5
		c-7.4,0-13.5,6.1-13.5,13.5v323.4c0,7.4,6.1,13.5,13.5,13.5h485.1c7.4,0,13.5-6.1,13.5-13.5V148.2
		C512,140.8,505.9,134.7,498.5,134.7z M363.8,229.1c7.4,0,13.5,6.1,13.5,13.5c0,7.4-6.1,13.5-13.5,13.5c-7.4,0-13.5-6.1-13.5-13.5
		C350.3,235.1,356.4,229.1,363.8,229.1z M256,53.9c47.2,0,86.9,35,93,80.8H163C169.1,88.9,208.8,53.9,256,53.9z M148.2,229.1
		c7.4,0,13.5,6.1,13.5,13.5c0,7.4-6.1,13.5-13.5,13.5c-7.4,0-13.5-6.1-13.5-13.5C134.7,235.1,140.8,229.1,148.2,229.1z M485.1,458.1
		H26.9V161.7h107.8v42.4c-15.5,5.4-26.9,20.2-26.9,38.4c0,22.2,18.2,40.4,40.4,40.4s40.4-18.2,40.4-40.4c0-17.5-11.5-32.3-26.9-38.4
		v-42.4h188.6v42.4c-15.5,5.4-26.9,20.2-26.9,38.4c0,22.2,18.2,40.4,40.4,40.4c22.2,0,40.4-18.2,40.4-40.4
		c0-17.5-11.5-32.3-26.9-38.4v-42.4h107.8V458.1z"/>
</g>
</svg>
