<?xml version="1.0" encoding="iso-8859-1"?>
<!-- Generator: Adobe Illustrator 18.1.1, SVG Export Plug-In . SVG Version: 6.00 Build 0)  -->
<svg xmlns="http://www.w3.org/2000/svg" xmlns:xlink="http://www.w3.org/1999/xlink" version="1.1" id="Capa_1" x="0px" y="0px" viewBox="0 0 76 76" style="enable-background:new 0 0 76 76;" xml:space="preserve" width="512px" height="512px">
<g id="_x37_7_Essential_Icons_59_">
	<path id="Shopping" d="M74,20H55.9c-1-9-8.6-16-17.9-16s-16.9,7-17.9,16H2c-1.1,0-2,0.9-2,2v48c0,1.1,0.9,2,2,2h72c1.1,0,2-0.9,2-2   V22C76,20.9,75.1,20,74,20z M54,34c1.1,0,2,0.9,2,2s-0.9,2-2,2s-2-0.9-2-2S52.9,34,54,34z M38,8c7,0,12.9,5.2,13.8,12H24.2   C25.1,13.2,31,8,38,8z M22,34c1.1,0,2,0.9,2,2s-0.9,2-2,2s-2-0.9-2-2S20.9,34,22,34z M72,68H4V24h16v6.3c-2.3,0.8-4,3-4,5.7   c0,3.3,2.7,6,6,6s6-2.7,6-6c0-2.6-1.7-4.8-4-5.7V24h28v6.3c-2.3,0.8-4,3-4,5.7c0,3.3,2.7,6,6,6c3.3,0,6-2.7,6-6   c0-2.6-1.7-4.8-4-5.7V24h16V68z" fill="#999999"/>
</g>
<g>
</g>
<g>
</g>
<g>
</g>
<g>
</g>
<g>
</g>
<g>
</g>
<g>
</g>
<g>
</g>
<g>
</g>
<g>
</g>
<g>
</g>
<g>
</g>
<g>
</g>
<g>
</g>
<g>
</g>
</svg>
